<?xml version="1.0" encoding="iso-8859-1"?>
<!-- Generator: Adobe Illustrator 18.1.1, SVG Export Plug-In . SVG Version: 6.00 Build 0)  -->
<svg version="1.1" id="Capa_1" xmlns="http://www.w3.org/2000/svg" xmlns:xlink="http://www.w3.org/1999/xlink" x="0px" y="0px"
	 viewBox="0 0 525.153 525.153" style="enable-background:new 0 0 525.153 525.153;" xml:space="preserve">
<g>
	<path d="M52.526,105.052H0.011v367.629c0,28.84,23.632,52.471,52.515,52.471h367.585v-52.471H52.526V105.052z M472.648,0H157.557
		c-28.883,0-52.493,23.632-52.493,52.471v315.135c0,28.84,23.632,52.471,52.471,52.471h315.091
		c28.883,0,52.515-23.632,52.515-52.471V52.471C525.163,23.632,501.532,0,472.648,0z M446.391,236.341H341.36v105.052h-52.515
		V236.34H183.814V183.76h105.009V78.817h52.515v104.965h105.052V236.341z"/>
</g>
<g>
</g>
<g>
</g>
<g>
</g>
<g>
</g>
<g>
</g>
<g>
</g>
<g>
</g>
<g>
</g>
<g>
</g>
<g>
</g>
<g>
</g>
<g>
</g>
<g>
</g>
<g>
</g>
<g>
</g>
</svg>
